<?xml version="1.0" encoding="UTF-8"?>
<!DOCTYPE svg PUBLIC "-//W3C//DTD SVG 1.1//EN" "http://www.w3.org/Graphics/SVG/1.1/DTD/svg11.dtd">
<svg version="1.1" xmlns="http://www.w3.org/2000/svg" xmlns:xlink="http://www.w3.org/1999/xlink" x="0px" y="0px" width="128" height="128" viewBox="0, 0, 128, 128">
  <g id="Background">
    <rect x="0" y="0" width="128" height="128" fill="#000000" fill-opacity="0"/>
  </g>
  <g id="Background">
    <path d="M18.093,6 L109.907,6 C116.561,6 122,11.439 122,18.093 L122,109.907 C122,116.561 116.561,122 109.907,122 L18.093,122 C11.439,122 6,116.561 6,109.907 L6,18.093 C6,11.439 11.439,6 18.093,6" fill="#737370"/>
    <path d="M17.408,26.579 L25.254,26.579 L25.254,76.125 L17.408,76.125 z" fill="#EBECEC"/>
    <path d="M30.287,26.579 L42.933,26.579 L42.933,76.125 L30.287,76.125 z" fill="#EBECEC"/>
    <path d="M47.526,26.579 L52.099,26.579 L52.099,76.125 L47.526,76.125 z" fill="#EBECEC"/>
    <path d="M55.168,26.579 L59.739,26.579 L59.739,76.125 L55.168,76.125 z" fill="#EBECEC"/>
    <path d="M64.767,26.579 L73.051,26.579 L73.051,76.125 L64.767,76.125 z" fill="#EBECEC"/>
    <path d="M89.839,26.579 L99.024,26.579 L99.024,76.125 L89.839,76.125 z" fill="#EBECEC"/>
    <path d="M102.746,26.579 L110.592,26.579 L110.592,76.125 L102.746,76.125 z" fill="#EBECEC"/>
    <path d="M77.897,26.579 L80.833,26.579 L80.833,76.125 L77.897,76.125 z" fill="#EBECEC"/>
    <path d="M83.13,26.579 L86.067,26.579 L86.067,76.125 L83.13,76.125 z" fill="#EBECEC"/>
    <path d="M40.023,102.531 C40.023,103.878 39.777,105.088 39.279,106.161 C38.781,107.239 38.097,108.152 37.22,108.906 C36.347,109.66 35.311,110.236 34.114,110.642 C32.917,111.044 31.607,111.244 30.181,111.244 C28.784,111.244 27.487,111.044 26.29,110.642 C25.09,110.236 24.062,109.66 23.203,108.906 C22.34,108.152 21.665,107.239 21.167,106.161 C20.669,105.088 20.418,103.878 20.418,102.531 L20.418,91.561 C20.418,90.187 20.669,88.963 21.167,87.89 C21.665,86.812 22.35,85.893 23.221,85.126 C24.099,84.36 25.13,83.775 26.327,83.372 C27.524,82.966 28.812,82.765 30.181,82.765 C31.58,82.765 32.885,82.966 34.096,83.372 C35.306,83.775 36.347,84.36 37.22,85.126 C38.097,85.893 38.781,86.812 39.279,87.89 C39.777,88.963 40.023,90.187 40.023,91.561 z M32.118,91.763 C32.118,90.794 31.945,90.11 31.592,89.702 C31.241,89.301 30.771,89.099 30.181,89.099 C29.588,89.099 29.127,89.301 28.789,89.702 C28.456,90.11 28.286,90.794 28.286,91.763 L28.286,102.372 C28.286,103.34 28.456,104.01 28.789,104.391 C29.127,104.764 29.588,104.951 30.181,104.951 C30.771,104.951 31.241,104.737 31.592,104.307 C31.945,103.878 32.118,103.231 32.118,102.372 z M50.418,111.044 L50.418,90.994 C49.719,91.479 48.965,91.995 48.158,92.547 C47.354,93.1 46.719,93.535 46.262,93.859 L46.262,86.597 L51.509,82.966 L58.245,82.966 L58.245,111.044 z M65.046,91.078 C65.265,89.812 65.667,88.671 66.256,87.648 C66.85,86.625 67.575,85.752 68.434,85.027 C69.297,84.3 70.27,83.743 71.361,83.349 C72.449,82.961 73.613,82.765 74.851,82.765 C76.302,82.765 77.627,82.934 78.824,83.267 C80.021,83.606 81.049,84.113 81.911,84.783 C82.769,85.455 83.436,86.296 83.907,87.305 C84.377,88.315 84.611,89.488 84.611,90.835 C84.611,91.803 84.419,92.791 84.026,93.799 C83.638,94.808 83.095,95.703 82.396,96.48 L74.811,105.153 L84.574,105.153 L84.574,111.044 L64.844,111.044 L64.844,106.121 L75.777,93.535 C75.966,93.319 76.162,93 76.362,92.567 C76.563,92.136 76.663,91.708 76.663,91.278 C76.663,89.881 76.048,89.182 74.811,89.182 C74.298,89.182 73.855,89.415 73.481,89.886 C73.101,90.356 72.819,91.196 72.631,92.405 z M103.801,96.602 C104.5,96.9 105.093,97.279 105.578,97.754 C106.061,98.225 106.445,98.723 106.723,99.243 C107.007,99.768 107.207,100.306 107.331,100.859 C107.45,101.407 107.513,101.929 107.513,102.412 C107.513,103.699 107.291,104.892 106.847,105.979 C106.404,107.07 105.75,108.007 104.892,108.782 C104.03,109.564 102.955,110.171 101.663,110.601 C100.371,111.03 98.877,111.244 97.182,111.244 C96.082,111.244 94.991,111.13 93.918,110.903 C92.84,110.674 91.84,110.273 90.912,109.693 C89.986,109.113 89.177,108.339 88.492,107.373 C87.807,106.404 87.327,105.18 87.058,103.699 L94.643,102.654 C94.804,103.595 95.096,104.212 95.512,104.508 C95.927,104.805 96.407,104.951 96.941,104.951 C97.563,104.951 98.101,104.759 98.558,104.366 C99.014,103.978 99.243,103.298 99.243,102.33 C99.243,101.389 98.987,100.659 98.476,100.134 C97.964,99.609 97.237,99.343 96.298,99.343 L93.794,99.343 L93.794,93.941 L96.38,93.941 C97.319,93.941 98.011,93.675 98.457,93.155 C98.9,92.629 99.119,92.017 99.119,91.32 C99.119,90.566 98.947,90.023 98.599,89.684 C98.247,89.346 97.777,89.182 97.182,89.182 C96.996,89.182 96.799,89.204 96.599,89.259 C96.398,89.314 96.196,89.428 95.995,89.602 C95.795,89.779 95.604,90.04 95.43,90.392 C95.256,90.74 95.101,91.196 94.969,91.763 L87.382,90.392 C87.625,89.182 88.067,88.094 88.711,87.14 C89.36,86.187 90.14,85.387 91.054,84.743 C91.967,84.099 93.005,83.606 94.16,83.267 C95.315,82.934 96.54,82.765 97.832,82.765 C99.527,82.765 100.969,82.989 102.166,83.432 C103.363,83.875 104.344,84.474 105.111,85.226 C105.879,85.98 106.445,86.852 106.806,87.848 C107.171,88.843 107.349,89.881 107.349,90.954 C107.349,91.355 107.286,91.817 107.149,92.323 C107.015,92.836 106.806,93.346 106.522,93.859 C106.24,94.369 105.879,94.854 105.436,95.31 C104.993,95.768 104.458,96.132 103.841,96.403 z" fill="#EBECEC"/>
  </g>
  <defs/>
</svg>
